<?xml version="1.0" encoding="UTF-8" standalone="no"?>
<!-- Created with Inkscape (http://www.inkscape.org/) -->

<svg
   width="26.965191mm"
   height="7.3003926mm"
   viewBox="0 0 26.96519 7.3003924"
   version="1.1"
   id="svg5"
   inkscape:version="1.2.2 (b0a8486541, 2022-12-01)"
   sodipodi:docname="monvi-dark.svg"
   xmlns:inkscape="http://www.inkscape.org/namespaces/inkscape"
   xmlns:sodipodi="http://sodipodi.sourceforge.net/DTD/sodipodi-0.dtd"
   xmlns="http://www.w3.org/2000/svg"
   xmlns:svg="http://www.w3.org/2000/svg">
  <sodipodi:namedview
     id="namedview7"
     pagecolor="#000000"
     bordercolor="#000000"
     borderopacity="0.25"
     inkscape:showpageshadow="2"
     inkscape:pageopacity="0"
     inkscape:pagecheckerboard="0"
     inkscape:deskcolor="#d1d1d1"
     inkscape:document-units="mm"
     showgrid="false"
     inkscape:zoom="5.9794051"
     inkscape:cx="47.078262"
     inkscape:cy="5.7698048"
     inkscape:window-width="1920"
     inkscape:window-height="1018"
     inkscape:window-x="0"
     inkscape:window-y="32"
     inkscape:window-maximized="1"
     inkscape:current-layer="layer1" />
  <defs
     id="defs2">
    <marker
       style="overflow:visible"
       id="TriangleStart"
       refX="0"
       refY="0"
       orient="auto-start-reverse"
       inkscape:stockid="TriangleStart"
       markerWidth="1.7"
       markerHeight="1.965319"
       viewBox="0 0 5.3244081 6.1553851"
       inkscape:isstock="true"
       inkscape:collect="always"
       preserveAspectRatio="xMidYMid">
      <path
         transform="scale(0.5)"
         style="fill:context-stroke;fill-rule:evenodd;stroke:context-stroke;stroke-width:1pt"
         d="M 5.77,0 -2.88,5 V -5 Z"
         id="path135" />
    </marker>
    <marker
       style="overflow:visible"
       id="TriangleStart-6"
       refX="0"
       refY="0"
       orient="auto-start-reverse"
       inkscape:stockid="TriangleStart"
       markerWidth="1.7"
       markerHeight="1.965319"
       viewBox="0 0 5.3244081 6.1553851"
       inkscape:isstock="true"
       inkscape:collect="always"
       preserveAspectRatio="xMidYMid">
      <path
         transform="scale(0.5)"
         style="fill:context-stroke;fill-rule:evenodd;stroke:context-stroke;stroke-width:1pt"
         d="M 5.77,0 -2.88,5 V -5 Z"
         id="path135-7" />
    </marker>
    <marker
       style="overflow:visible"
       id="TriangleStart-6-3"
       refX="0"
       refY="0"
       orient="auto-start-reverse"
       inkscape:stockid="TriangleStart"
       markerWidth="1.7"
       markerHeight="1.965319"
       viewBox="0 0 5.3244081 6.1553851"
       inkscape:isstock="true"
       inkscape:collect="always"
       preserveAspectRatio="xMidYMid">
      <path
         transform="scale(0.5)"
         style="fill:context-stroke;fill-rule:evenodd;stroke:context-stroke;stroke-width:1pt"
         d="M 5.77,0 -2.88,5 V -5 Z"
         id="path135-7-6" />
    </marker>
    <marker
       style="overflow:visible"
       id="TriangleStart-7"
       refX="0"
       refY="0"
       orient="auto-start-reverse"
       inkscape:stockid="TriangleStart"
       markerWidth="1.7"
       markerHeight="1.965319"
       viewBox="0 0 5.3244081 6.1553851"
       inkscape:isstock="true"
       inkscape:collect="always"
       preserveAspectRatio="xMidYMid">
      <path
         transform="scale(0.5)"
         style="fill:context-stroke;fill-rule:evenodd;stroke:context-stroke;stroke-width:1pt"
         d="M 5.77,0 -2.88,5 V -5 Z"
         id="path135-5" />
    </marker>
  </defs>
  <g
     inkscape:label="Layer 1"
     inkscape:groupmode="layer"
     id="layer1"
     transform="translate(-121.62927,-65.043622)">
    <path
       d="m 127.46281,67.08409 q 0.54187,0 0.95673,0.220133 0.42334,0.211667 0.6604,0.6604 0.24554,0.440267 0.24554,1.134534 v 2.607735 h -1.3208 v -2.404535 q 0,-0.550333 -0.2286,-0.8128 -0.2286,-0.262467 -0.64347,-0.262467 -0.28787,0 -0.51647,0.135467 -0.2286,0.127 -0.3556,0.389467 -0.127,0.262466 -0.127,0.668867 v 2.286001 h -1.3208 v -2.404535 q 0,-0.550333 -0.2286,-0.8128 -0.22013,-0.262467 -0.635,-0.262467 -0.28787,0 -0.51647,0.135467 -0.2286,0.127 -0.3556,0.389467 -0.127,0.262466 -0.127,0.668867 v 2.286001 h -1.3208 v -4.555069 h 1.26154 v 1.244601 l -0.23707,-0.364067 q 0.23707,-0.465667 0.66887,-0.702734 0.44026,-0.245533 0.99906,-0.245533 0.62654,0 1.09221,0.321733 0.47413,0.313267 0.62653,0.965201 l -0.46567,-0.127001 q 0.2286,-0.5334 0.72814,-0.846667 0.508,-0.313266 1.15993,-0.313266 z"
       style="font-weight:bold;font-size:8.46667px;font-family:Montserrat;-inkscape-font-specification:'Montserrat Bold';fill:#e9eff7;fill-opacity:1;stroke:none;stroke-width:7.05556;stroke-opacity:1"
       id="path1052" />
    <path
       d="m 132.71214,71.774625 q -0.72813,0 -1.2954,-0.3048 -0.5588,-0.3048 -0.889,-0.829734 -0.32173,-0.5334 -0.32173,-1.210734 0,-0.6858 0.32173,-1.210734 0.3302,-0.5334 0.889,-0.829733 0.56727,-0.3048 1.2954,-0.3048 0.71967,0 1.28693,0.3048 0.56727,0.296333 0.88901,0.821267 0.32173,0.524933 0.32173,1.2192 0,0.677334 -0.32173,1.210734 -0.32174,0.524934 -0.88901,0.829734 -0.56726,0.3048 -1.28693,0.3048 z m 0,-1.083734 q 0.3302,0 0.59267,-0.1524 0.26246,-0.1524 0.41486,-0.4318 0.1524,-0.287867 0.1524,-0.677334 0,-0.397933 -0.1524,-0.677333 -0.1524,-0.2794 -0.41486,-0.431801 -0.26247,-0.1524 -0.59267,-0.1524 -0.3302,0 -0.59267,0.1524 -0.26246,0.152401 -0.42333,0.431801 -0.1524,0.2794 -0.1524,0.677333 0,0.389467 0.1524,0.677334 0.16087,0.2794 0.42333,0.4318 0.26247,0.1524 0.59267,0.1524 z"
       style="font-weight:bold;font-size:8.46667px;font-family:Montserrat;-inkscape-font-specification:'Montserrat Bold';fill:#e9eff7;fill-opacity:1;stroke:none;stroke-width:7.05556;stroke-opacity:1"
       id="path1054" />
    <path
       d="m 147.11279,71.706892 v -4.555069 h 1.3208 v 4.555069 z m 0.6604,-5.190069 q -0.36407,0 -0.59267,-0.211667 -0.2286,-0.211667 -0.2286,-0.524934 0,-0.313266 0.2286,-0.524933 0.2286,-0.211667 0.59267,-0.211667 0.36407,0 0.59267,0.2032 0.2286,0.194734 0.2286,0.508 0,0.330201 -0.2286,0.550334 -0.22014,0.211667 -0.59267,0.211667 z"
       style="font-weight:bold;font-size:8.46667px;font-family:Montserrat;-inkscape-font-specification:'Montserrat Bold';fill:#e9eff7;fill-opacity:1;stroke:none;stroke-width:7.05556;stroke-opacity:1"
       id="path1058" />
    <path
       style="fill:none;fill-opacity:1;stroke:#a0b5d2;stroke-width:1.2;stroke-dasharray:none;stroke-opacity:1;marker-start:url(#TriangleStart-6)"
       d="m 145.66946,67.151821 -1.91347,4.55507"
       id="path1273-5" />
    <path
       style="fill:#ee6c4d;fill-opacity:1;stroke:#ff9376;stroke-width:1.2;stroke-dasharray:none;stroke-opacity:1;marker-start:url(#TriangleStart)"
       d="m 141.78845,67.151821 1.91347,4.55507"
       id="path1273" />
    <circle
       style="fill:#ff9376;fill-opacity:1;stroke:none;stroke-width:1.2;stroke-dasharray:none;stroke-opacity:1"
       id="path2663"
       cx="143.72884"
       cy="71.531395"
       r="0.81261951" />
    <path
       style="fill:#d40000;fill-opacity:1;stroke:#a0b5d2;stroke-width:1.2;stroke-dasharray:none;stroke-opacity:1;marker-start:url(#TriangleStart-6-3)"
       d="m 140.53692,71.089629 -1.91347,-4.55507"
       id="path1273-5-3" />
    <path
       style="fill:#ff9376;fill-opacity:1;stroke:#ff9376;stroke-width:1.2;stroke-dasharray:none;stroke-opacity:1;marker-start:url(#TriangleStart-7)"
       d="m 136.65591,71.089629 1.91347,-4.55507"
       id="path1273-56" />
    <circle
       style="fill:#ff9376;fill-opacity:1;stroke:none;stroke-width:1.2;stroke-dasharray:none;stroke-opacity:1"
       id="path2663-2"
       cx="138.59628"
       cy="-66.710052"
       r="0.81261951"
       transform="scale(1,-1)" />
  </g>
</svg>
